<?xml version="1.0" encoding="utf-8"?>
<!-- Generator: Adobe Illustrator 15.0.0, SVG Export Plug-In . SVG Version: 6.00 Build 0)  -->
<!DOCTYPE svg PUBLIC "-//W3C//DTD SVG 1.1//EN" "http://www.w3.org/Graphics/SVG/1.1/DTD/svg11.dtd">
<svg version="1.1" id="Ebene_1" xmlns="http://www.w3.org/2000/svg" xmlns:xlink="http://www.w3.org/1999/xlink" x="0px" y="0px"
	 width="279.307px" height="62.51px" viewBox="0 0 279.307 62.51" enable-background="new 0 0 279.307 62.51" xml:space="preserve">
<g>
	<linearGradient id="SVGID_1_" gradientUnits="userSpaceOnUse" x1="0" y1="31.2549" x2="116.0669" y2="31.2549">
		<stop  offset="0" style="stop-color:#5A86B6"/>
		<stop  offset="0.1432" style="stop-color:#4F80B2"/>
		<stop  offset="0.3804" style="stop-color:#3071A7"/>
		<stop  offset="0.5843" style="stop-color:#00629B"/>
		<stop  offset="1" style="stop-color:#004B88"/>
	</linearGradient>
	<path fill="url(#SVGID_1_)" d="M77.783,4.924l3.752-3.753c1.563-1.562,4.095-1.562,5.657,0l28.019,28.019
		c1.14,1.141,1.141,2.99,0,4.131l0,0l-9.31,9.309l-1.791,1.791l-6.582,6.582l-0.937,0.937l-5.647,5.646l-3.662,3.662l-0.091,0.092
		c-1.563,1.562-4.095,1.562-5.657-0.001L66.408,46.211c-0.989-0.989-0.989-2.593,0.001-3.582l0,0l4.79-4.791l4.52-4.518l2.065-2.065
		l3.752-3.754c1.562-1.563,4.095-1.563,5.657,0l1.688,1.688c1.141,1.141,1.141,2.99,0,4.131l0,0l-8.272,8.271
		c-1.562,1.563-1.562,4.096,0,5.657l0.927,0.927c1.562,1.562,4.094,1.563,5.657,0l5.546-5.546l4.79-4.791l4.52-4.518l0,0
		c1.14-1.141,1.14-2.99,0-4.131L87.192,14.334c-1.563-1.562-4.095-1.562-5.657,0L34.531,61.338c-1.562,1.562-4.095,1.562-5.657,0
		L0.856,33.32l0,0c-1.141-1.141-1.141-2.99,0-4.131l4.517-4.518l0.661-0.662l5.923-5.921l3.387-3.389l3.195-3.192l6.114-6.116
		l0.469-0.468l3.753-3.753c1.562-1.562,4.095-1.562,5.657,0l3.753,3.753l0.467,0.468l9.31,9.309l0.561,0.561
		c1.562,1.563,1.562,4.095,0,5.656L34.531,35.008c-1.562,1.563-4.095,1.563-5.657,0l-0.925-0.925c-1.562-1.563-1.562-4.095,0-5.656
		l3.754-3.755l0.663-0.662l3.092-3.092c1.562-1.563,1.562-4.096,0-5.657l-0.927-0.927c-1.562-1.563-4.095-1.563-5.657,0
		L14.019,29.189c-1.141,1.141-1.141,2.99,0,4.131l0,0l4.519,4.518l4.79,4.791l5.546,5.546c1.562,1.563,4.095,1.563,5.657,0
		l3.755-3.755l1.791-1.791l9.309-9.309l2.065-2.065l6.582-6.583l0.663-0.662l5.92-5.921l3.389-3.389l9.31-9.309L77.783,4.924z"/>
	<g>
		<path fill="#FFFFFF" d="M158.606,23.246c-0.97-2.08-2.45-3.779-4.44-5.1c-1.989-1.32-4.52-1.98-7.58-1.98
			c-2.359,0-4.409,0.41-6.159,1.24c-1.74,0.83-3.17,1.94-4.3,3.33c-1.13,1.39-1.97,2.95-2.51,4.67c-0.55,1.73-0.82,3.51-0.82,5.34
			v0.95c0,1.8,0.27,3.561,0.82,5.28c0.54,1.729,1.38,3.29,2.51,4.68c1.13,1.391,2.59,2.51,4.38,3.351c1.8,0.85,3.93,1.27,6.399,1.27
			c2.211,0,4.2-0.37,5.971-1.11c1.76-0.739,3.22-1.81,4.38-3.22c0.765-0.922,1.366-1.968,1.794-3.121
			c0.342-0.918-0.335-1.898-1.314-1.898h-1.9c-0.568,0-1.066,0.346-1.293,0.868c-0.41,0.946-1.149,1.804-2.227,2.562
			c-1.39,0.99-3.199,1.479-5.41,1.479c-2.119,0-3.859-0.46-5.229-1.399c-1.38-0.93-2.39-2.2-3.04-3.8
			c-0.54-1.34-0.86-2.83-0.95-4.46h20.37c1.109,0,2-0.9,2-2v-0.28C160.057,27.536,159.576,25.326,158.606,23.246z M137.907,28.326
			c0.15-0.93,0.4-1.79,0.73-2.6c0.65-1.58,1.64-2.83,2.96-3.75c1.319-0.92,2.979-1.38,4.989-1.38c1.941,0,3.541,0.41,4.811,1.22
			c1.26,0.81,2.221,1.95,2.85,3.41c0.4,0.92,0.67,1.95,0.82,3.1H137.907z"/>
	</g>
	<g>
		<path fill="#FFFFFF" d="M191.867,23.246c-0.971-2.08-2.451-3.779-4.44-5.1c-1.99-1.32-4.521-1.98-7.58-1.98
			c-2.36,0-4.41,0.41-6.16,1.24c-1.739,0.83-3.17,1.94-4.3,3.33s-1.971,2.95-2.51,4.67c-0.551,1.73-0.82,3.51-0.82,5.34v0.95
			c0,1.8,0.27,3.561,0.82,5.28c0.539,1.729,1.38,3.29,2.51,4.68c1.13,1.391,2.59,2.51,4.38,3.351c1.8,0.85,3.931,1.27,6.399,1.27
			c2.211,0,4.201-0.37,5.971-1.11c1.76-0.739,3.22-1.81,4.38-3.22c0.765-0.922,1.366-1.968,1.794-3.121
			c0.342-0.918-0.335-1.898-1.314-1.898h-1.899c-0.569,0-1.067,0.346-1.294,0.868c-0.41,0.946-1.149,1.804-2.227,2.562
			c-1.39,0.99-3.199,1.479-5.41,1.479c-2.119,0-3.859-0.46-5.229-1.399c-1.38-0.93-2.39-2.2-3.04-3.8
			c-0.54-1.34-0.859-2.83-0.949-4.46h20.369c1.11,0,2-0.9,2-2v-0.28C193.316,27.536,192.836,25.326,191.867,23.246z M171.166,28.326
			c0.15-0.93,0.4-1.79,0.73-2.6c0.65-1.58,1.641-2.83,2.96-3.75c1.32-0.92,2.979-1.38,4.99-1.38c1.94,0,3.54,0.41,4.81,1.22
			c1.26,0.81,2.221,1.95,2.851,3.41c0.399,0.92,0.67,1.95,0.819,3.1H171.166z"/>
	</g>
	<g>
		<path fill="#FFFFFF" d="M210.889,46.194c-3.698,0-6.561-0.794-8.585-2.378c-1.585-1.239-2.57-2.835-2.958-4.785
			c-0.176-0.881,0.471-1.713,1.369-1.713h2.021c0.599,0,1.171,0.353,1.357,0.921c0.248,0.755,0.743,1.478,1.485,2.169
			c1.038,0.97,2.809,1.453,5.31,1.453c2.254,0,3.979-0.449,5.178-1.346c1.197-0.899,1.796-2,1.796-3.303
			c0-1.162-0.44-2.069-1.321-2.722c-0.88-0.651-2.307-1.083-4.278-1.294l-3.064-0.317c-2.677-0.281-4.861-1.082-6.552-2.403
			c-1.689-1.321-2.535-3.179-2.535-5.573c0-1.797,0.457-3.337,1.373-4.623c0.916-1.285,2.184-2.272,3.805-2.959
			c1.619-0.686,3.486-1.03,5.6-1.03c3.17,0,5.74,0.705,7.713,2.113c1.546,1.104,2.508,2.631,2.885,4.578
			c0.171,0.881-0.473,1.709-1.369,1.709h-2.016c-0.596,0-1.167-0.355-1.339-0.925c-0.223-0.737-0.692-1.389-1.409-1.954
			c-1.004-0.793-2.492-1.189-4.465-1.189s-3.47,0.406-4.49,1.216c-1.022,0.811-1.533,1.831-1.533,3.064
			c0,1.056,0.361,1.901,1.084,2.535c0.721,0.635,1.91,1.039,3.566,1.215l3.064,0.317c3.027,0.316,5.459,1.154,7.291,2.51
			c1.83,1.356,2.746,3.267,2.746,5.732c0,1.762-0.502,3.32-1.506,4.676s-2.386,2.413-4.146,3.169
			C215.203,45.814,213.178,46.194,210.889,46.194z"/>
	</g>
	<g>
		<path fill="#FFFFFF" d="M228.828,43.549v-2.538c0-0.85,0.299-1.673,0.844-2.326l14.531-17.427v0.845l-0.846-1.268l0.687,0.317
			h-14.026c-0.773,0-1.4-0.627-1.4-1.4v-1.216c0-0.773,0.627-1.399,1.4-1.399h16.876c0.993,0,1.8,0.806,1.8,1.8v2.747
			c0,0.714-0.25,1.406-0.708,1.954l-14.667,17.59v-0.74l0.951,1.321l-0.739-0.476h14.608c0.773,0,1.4,0.627,1.4,1.399v1.216
			c0,0.773-0.627,1.4-1.4,1.4h-17.51C229.635,45.349,228.828,44.543,228.828,43.549z"/>
	</g>
	<g>
		<path fill="#FFFFFF" d="M263.047,43.402l-8.922-24.385c-0.334-0.914,0.342-1.881,1.314-1.881h2.182
			c0.595,0,1.125,0.375,1.321,0.937l8.775,25.031c0.276,0.787-0.308,1.61-1.142,1.61h-1.651
			C264.086,44.715,263.336,44.19,263.047,43.402z M255.443,54.937v-1.742c0-0.773,0.627-1.4,1.4-1.4h2.668
			c1.197,0,2.211-0.15,3.039-0.449c0.826-0.299,1.513-0.802,2.06-1.506c0.546-0.704,0.995-1.638,1.347-2.8l8.578-28.901
			c0.177-0.594,0.723-1.001,1.343-1.001h2.038c0.938,0,1.61,0.904,1.34,1.804l-8.861,29.42c-0.563,1.865-1.354,3.389-2.377,4.57
			c-1.021,1.18-2.264,2.041-3.725,2.588c-1.461,0.546-3.16,0.818-5.098,0.818h-2.352C256.07,56.337,255.443,55.71,255.443,54.937z
			 M264.057,43.505v-1.808c0-0.668,0.541-1.21,1.209-1.21h3.709c0.668,0,1.209,0.542,1.209,1.21v1.808
			c0,0.668-0.541,1.21-1.209,1.21h-3.709C264.598,44.715,264.057,44.173,264.057,43.505z"/>
	</g>
</g>
</svg>
